<mxfile host="app.diagrams.net" agent="Mozilla/5.0 (Windows NT 10.0; Win64; x64) AppleWebKit/537.36 (KHTML, like Gecko) Chrome/134.0.0.0 Safari/537.36" version="26.1.3">
  <diagram name="Page-1" id="q6W8nLASlhjJ8ZjF5N-Z">
    <mxGraphModel dx="2524" dy="738" grid="0" gridSize="10" guides="1" tooltips="1" connect="1" arrows="1" fold="1" page="1" pageScale="1" pageWidth="850" pageHeight="1100" background="#ffffff" math="0" shadow="0">
      <root>
        <mxCell id="0" />
        <mxCell id="1" parent="0" />
        <mxCell id="FoVjViIGeTf74Zc5e6bM-42" value="" style="whiteSpace=wrap;html=1;aspect=fixed;" vertex="1" parent="1">
          <mxGeometry x="-613" y="367" width="199" height="199" as="geometry" />
        </mxCell>
        <UserObject label="" id="FoVjViIGeTf74Zc5e6bM-8">
          <mxCell style="rounded=0;whiteSpace=wrap;html=1;labelBorderColor=default;" vertex="1" parent="1">
            <mxGeometry x="-338" y="248" width="858" height="396" as="geometry" />
          </mxCell>
        </UserObject>
        <mxCell id="FoVjViIGeTf74Zc5e6bM-9" value="" style="shape=image;verticalLabelPosition=bottom;labelBackgroundColor=default;verticalAlign=top;aspect=fixed;imageAspect=0;image=data:image/png,iVBORw0KGgoAAAANSUhEUgAAACgAAAAoCAIAAAADnC86AAAAAXNSR0IArs4c6QAAAERlWElmTU0AKgAAAAgAAYdpAAQAAAABAAAAGgAAAAAAA6ABAAMAAAABAAEAAKACAAQAAAABAAAAKKADAAQAAAABAAAAKAAAAAB65masAAAEgElEQVRYCWNU0bdjGAjANBCWguwctZhuIT8a1KNBTbMQGE1ckKBVlJftaq46sH3V1VN7DmxbWZybyszMrKGmsnTuRHMTA4gaHw9nINdATwvC9XB1AHL5+fmkJMSn9DSdObj58slda5fMsDI3xhpdLFhFDfV1/v//N2navC9fv9pamWUkx7x7/3H1+q1G+jr+3m4nz1wA6gr29zQzNvB0dbxw6RqQGx7kA7Ty48dPi2b2CQsJdvRP//Tps6a6qqiIMFYrsFu8btN2IIJo2LXvsK21uZW50fwlq06cPg/xATMTE9ARZ85fNjHSAypjZWU1NtRdvnoTkKGuqgR04poN24DiQL1YbQUKYrcYKAF0tbGBDg8Pz4uXr4BuFxTgBwru2X+koapQRlpSSICfjY115rylMya0cnFx6mqpc3Jw7Np76Pfv3wcOnwgN9Aa6YOvOfcdPnfvz5w9Wu7Fb7Opo29tW8+79h7v3Hwnw86ooyV+/eQdk8YEj9ZUFQE/zcHNdvnbz+Kmz//79A3rd1Fj/9Zt35y9dBaopqW7NSo3183IFxsXrN2/L6zoOHzuFaTcj1obAkV1rf/365eoX/fffP6CeDctn//37NzgmA8het2zWw4dPODjZ79572DNp1vJ5k0+dvWBlbnL95u261j64BYyMjMBk2NFY8ePnT4/AOLg4nIElHzMxMQkJ8j9++hxiq4qSgqqyIi8vD0TPnn2HLcyMTA31Tp+7CBQB2upoZ6WrowGPTmAUAMX///8PTBDAoBYXEwE6Am4fnIElqIGht+/gMVcn25kT2799+26or33m/CVg8MrJSj16/AwY2oU5KUA3AVMW0BRgCs9Kjfv0+QvQGiBXWVF+zZLpQPtev36nrCRvaqQ3Y+4SoCPg9sEZ2IOag509OjwA6NG79x9u3Lr758+fQIu37z4A0QZMO9+//9iyYy+QC8zf0WH+Dx8/PXjkJETW2sLEztpcQlwUmLX2HTp+4PBxiDgaid1iNEW04GIJampZAyxPtDRUOTk5bt99cOMWKFMgAywWG+ppX7h8DWvEIOvEzw7wcXOytwZma011FRkpST1LdzT1zEIS8mhCpkb6DVVF3759u/fgEdnW37h1F5gmgEXK/YePjQx0lqxcj2YLFotv3bl39vyl2vK8xJhQPj7et+/ev//wEU0bQa6sjFRsRFBeRuKvX78fPHwMSfPIunAmLmB2TImLSIoNA1Y4N2/fO3zs5JVrt65evwVMwLiCQUxUREdLDVhzWJgaamuq7T90rLV7SllBRk1zD6bTcVoMcR2wHI4JD0yOCxcSFICIAOurV6/efvz8+SMw8375ysbGBiw+gSW5vKw0UDFQDbCMO3T05KLl644cPw0sOhQVZO/dfwTRi0wSsBiilIWFBVgg21mbATOohpoy1pIIWFZfvHLt5OkLW3bsefP2PbIdWNlEWYysE5g9REWERISERESEuLk4P3z8/OHDxxevXj9/8QpZGUE2yRYTNJFIBVgqCSJ1Uqhs1GIKA5B47aNBTXxYUahy5AU1AD0k0AuulD18AAAAAElFTkSuQmCC;" vertex="1" parent="1">
          <mxGeometry x="-337" y="249" width="40" height="40" as="geometry" />
        </mxCell>
        <mxCell id="FoVjViIGeTf74Zc5e6bM-11" value="&lt;b&gt;AWS Cloud&lt;/b&gt;" style="text;html=1;align=center;verticalAlign=middle;whiteSpace=wrap;rounded=0;fontSize=13;" vertex="1" parent="1">
          <mxGeometry x="-300" y="252" width="91" height="30" as="geometry" />
        </mxCell>
        <mxCell id="FoVjViIGeTf74Zc5e6bM-13" value="" style="shape=image;verticalLabelPosition=bottom;labelBackgroundColor=default;verticalAlign=top;aspect=fixed;imageAspect=0;image=data:image/png,iVBORw0KGgoAAAANSUhEUgAAAFAAAABQCAIAAAABc2X6AAAAAXNSR0IArs4c6QAAAERlWElmTU0AKgAAAAgAAYdpAAQAAAABAAAAGgAAAAAAA6ABAAMAAAABAAEAAKACAAQAAAABAAAAUKADAAQAAAABAAAAUAAAAAAx4ExPAAANIklEQVR4Ae2aB5BV5RXHz6P33pcqvYkUl6qig4KClIgEUScxyUyaaSaKIEQjlpDIxDGZmDKDbRAQAqJEjSACSq9SFum9977Uze+87/ntffe+fe/d+94yLuyZO7v33fvd737/75zvnP853w29MiBHbiQpciOBVayFgK93jRdquFDD19kMFJr0daZQD5xCDXum5Dq7cMNpuFi+KrBMJcloIXVaSI2bhPPS5aVUecm5Kpey5dxJObZXju6S7Stk3yaRa8XoQ/mRPJQoLc17SNteUrt5UvN59rhsWaLHzq90OvJV0gy4ZFnpOkRu7i3FS+mw0eT+TbLva/175qicPy3Zp6VYSSlXJXxUlWr1pUlnqVAjgvHobpn/lmxbno+Q0wa4SFFp10e6DlW7RfZkybrZsmmBXLqQePQ1GkmTLtKqp1SsqY13r5N5b8jBrYkfDNAiPYDLVpZ+T0rdVuHhrpW5b8ihbb4Hw5Tdcq90+W54ynJk8RRZMDH9azsNgOu1kX6/U5+E0c7+p2xd6huq84GSZaTzg9Kxv4B/00L5+FW5fNF5P9XzVAE3vlX6P62D27VGZr4i50+5B8RyZUbqtpGq9aRMRSldQRf2mWN6nNgv25bJ3g2S43HRDdrJ/U8JHgHDfv9FbZwuSQlwww4ycIQULS4rPtBVFzXukDTqIO3vE9qEQvFGS3zCPy/9j5w8GNWsSoYMfEYq15Hj+2TCk3LhbNTdwD+CA67dTIa8IMVKKNq546MGQNTt9ROhAUKYQYfYOVGX8IOumKDyVaVsFandVF10pdra7MplWf2RLH5Pss/oTyOlysngP0jNxrJjpUwbEz2h37Tx+z8gYFbao39Rp/rVJzL7H46XhqTHMMl8QEJFdOhLpsj6z2PYueMBqdZAOg2QVneqIbAiPhgre9bn3mdqHhmnDmLZdI1YqUvRe1o8F6CXPr9Un0x0/fBPuRNP7MV7EYShTStm6NB3r5XLicKSMWmsGhuuWl+D09ljuU7+4nkN41ys21qI0hwpShDATbtI94fl4jmZ+qwSCSNFi8kDz+q6vXBOZrykmr9yycfYzp2QrLnKSZjHxply5aIuBCOnjygPxTvWaS6rP06VivlOHjA80CLz3nK4mZD0+ZUq4dQhefcp2bE6MlZf//B5GO0nrymk2x5V2FbWfCoHt0j5auoFUxTfyUPLnhpgiCgQKSsd+0mL2wTzm/aCHNtjL+tJuaoCkareUC22RBlh8eO0LmargaDVwzsihw226+co8bjjMbnvNzp3ERtmLt6WB5+XzMGydpYaUWDxDZg3nTosC96Vq1ciL8V1qc5zlCSQ/UQkJC1vV/6Aj00o0E/W8KJJGoGQ5TOkeiNdt/c8LhOHR54mzu9cLQ1ukY4DZCEMLKj4Bpz1uXw9X646cpqeP9BUgYln0FZ6/VipNQLN2Jslh3fK8b2SfVatgLVNOsWB78VFMyOYALODa3hvtOzfqE/Nfl3gHixa4pbtduEkBdzyjmsLmNFY3XKOoTbJVPbHaKzAkIyvhmliotZcbQPXCTZC3G7YXtr3jQBG53R490+lxyOydVnEUe3bqGG8Ui115rmm5Oor0c/kNBxSehhTVI0hWfVfJdJWcD+GXWV+R9NATBENx6BKIalYQ2o2Ud3Wa6tPX71s+1AfQXzGX9S/WXtQyVECwxuZ4vwFzOiHjMkdivds3WdR13BImC5GS6LbZYgeCKEFzNy6HDZpvBe82qTN9mGzhs1P7GjDPOn2kAakCGCJAMaBL5lqH/J3kpyGw/mtt+MyFaRKXfXYLs9MSxTOLUgYKT4lHpM5kDy4hFk4vF3DGGs1o6Uc3x91H30q4EyZ8+/I9V1r1QXASYuXTCrTjuou/CMpwATGySO9z8qtg+T27+ka8wqLDcBoDAaCwDTLVhLSZgYaKqq8AgcGo7IBBp+M4Niccmi7wDoqVI+kENwCLT2z5mHghLQA4pt4ON9BdEVi0j2zpAnCRpgyBnpklyZP8JMDW9QoLFq8gEkhThyItLf/ju7RUyiHFfpBTHt7MfmTpDScV3doDCEH8srpsA+D+jsFNWK3xFh81YIJYtrQoHwV1TxIiGEuwQoQ8yJzy7yORCqYJAZcq2mePRsFmil3NXJp2Nwl4yXq4qha36XhFJ9EaollVqqj93GNAHNNn+kcV2/FXClRyl7wd5IY8MN/TtCjiUCuRkZ7zoHSALY0aaQmwySDTbsqbA6iKwwcAe3Ql2XSiCjM3s7NFSfzcb06/s/EgOOU41hIxB6nvdmXGQ27TJq79MaBn6OU0Wmg6hk6xWEEUnHnj2SmY4pN504jMpNoszT7xiRPEgN+54k8u7r318p4XWo0rSMajl7Dzo5w4LP+LvPfVMzEHmKykWLFna20MII47dxMwXlHYSTqgUQ/EgOO04MJv8RYr5w/qQwUtkx9z0lFXS1x1KS4MEoAf/YvdVrsvDilWrhz0hUrZn7JtIJJSmHJ1GKciasdBOwSO2S9xdS/bcYJbSrW0rIJ6QfEGypiBQ+HX2SFw22MUEJD55DzIzttK38nyWo4phrhj7wbGgCdIsa6hGUMZwCwUz+uNvyEflItoQ2kwiWQSsRmS5zDq2lM0SeO1bg6cf1MCjA86ft/dT0Y9bNNL3fhktsxI1PUY+EflcNVSyeLNm1YCzhzxMnkjDXh2ANLUoDp3Tsg80pMkQyRLZKVH7o1afwWvGrz4jwLUaBq0F578vZPgontYLpUAiMS0kQC2bL4myv+/ycFGGI4/md59t33t1rfwdNSjnIKm4BUPHBI+GFWOwwUZ8sqQAhmmDrLJKOVGM608Uvno0pO2IVEvngntypKfQ8XzdTY+l7UM8n9SApw/K6+eFtzHSjEthW6XWgFmjHjZek+TMsaNOCIKWS2896MqkXTrPfj6uH3ZEVtnXYbqh1Q6E5FggDGVRJ+yYGN58DfsPNAyYJiNemOM4nB33BgmVAL+GO5ylrHw17QM94YnUNCvMbcebDup5M8f/q3XGhkHRQJeHDN/3IvBjgLAnjQKPWWDH35+5E3kgOyVjHsQaNl2vPumAGF5khSKGhQEsQ1zBznmIuQFm4R9h+8+3VJ9myaBYnDbHwhGBhRxwoLePtK5cnDxspNnexlHyfEAngllkJknjde95OsUI6m0IcLYEMjRQmy84C6iCXUoihlZM2NeGAMle1clmv1hqpqmBNJb8J9Fjt6cjK2aZp312jM3FF5t4Lt9H1CSwionTk1CaO96/ckCGDegddt1l3hsT6JOkbAvHGBgqzfVhdtu946SmbHeOa8RgZUyu53/VDtBR2yIpzsElpC/R2vzi0msVk3rW9xHlgC7h7yPtjVQ2N1KKxk3KxT2C7t+VikEEmpEVVvWar+DLLJgc8jJnEAlU87TEYFYyM3XjpNq3xWQAhaTIZQPP1FIVehvsmXMVNGR7lG2z6Zk+CA6Z21OmCEpgdrZ2vqg4adQp0Z8gBVoEEcgZ9sXiTLp+cWQExjJhTviIaJWxNHqNOmH742oEP81uRRASu1KQFmZESL/sO1QLNjla49r7GhJbXwFlrZ4Ryagc0bVZMSQBvRP1bgEqYSPoP5ELemjcntFiI9YKTuUZItgdlbLXX14/2ZKmB6ZLkOHKU7YEz8rNdVXakI/fAhD/wMX42LYv/ZVehiRQwcqXsuTO7kZxyhK7m3BnRazs6xSXy18c8QBvSJ6iiv+hWQQEXvHy71Wita1E5Z21W4pU/YDuGAWWZt4wIgNjH2NPJ+dxoA0zlK2DBfNcw4KEeTPMFMioRdtDfpcw8mpF8odugnd/9cmnUVKh7sp5EPsYb5STjwzh2YNy9UHl4d0uoTcxpM2gkA+tWpv+5osvwQ0DL0A5v1gIFSiOLDDxID46VJ5RkxGZ+tirEmv5ygiwIN9/6F8nOmcupzmgB7hX745iCjpUY+bNs7L95HuJJmwOYdwEY5JEmwXzXOREKgJusgKyBbsA6MB/mqANJOoAIz35N4hWnlMx8+F6KCD2aTgXubOa/kC2D7AjaTGA3xFlrGVgvfDpcqq18ooWe0jc6BgQEf3Baj3EEn8BZiL1vHlL74ngQz8QqbcsRq+icJAbM3TLgeyV/ArpcF+Alm4hOUE8805fexvzgl1IEZtsPymfR0bv4c83XpcVoxu07PxRz1wzgw8EBmd66Ss556JSwNH9a0m/ptbCem8dvBBMmW7MPX5gSfzFecwEaTg8NM0/te+Oac8JYqGxrxpQAABgCYYSDQMmgJ1ssnD14hgCHwufhSMACDQTGP1UQKfsrnCER7l5jd9oQF+gIDGHi49xl/VNIONsWcEQUZ6oIoM48r33qnFT16EjJoCaEO/0Sczz6l9K5CNekapt98PfLROM0f48i3PSzFHDqsm+/0XP4JXw33ZrMmvhRIwAYSGoZ7sv9EiCYULZqcVLZYgAHH12RedwuS08oLg6/rhYB9TVcBbFyo4QKoNF9DLtSwr+kqgI0LNVwAleZryDechv8P/cXqBTHhT9YAAAAASUVORK5CYII=;" vertex="1" parent="1">
          <mxGeometry x="277" y="410" width="80" height="80" as="geometry" />
        </mxCell>
        <mxCell id="FoVjViIGeTf74Zc5e6bM-16" value="" style="shape=image;verticalLabelPosition=bottom;labelBackgroundColor=default;verticalAlign=top;aspect=fixed;imageAspect=0;image=data:image/png,iVBORw0KGgoAAAANSUhEUgAAAFAAAABQCAIAAAABc2X6AAAAAXNSR0IArs4c6QAAAERlWElmTU0AKgAAAAgAAYdpAAQAAAABAAAAGgAAAAAAA6ABAAMAAAABAAEAAKACAAQAAAABAAAAUKADAAQAAAABAAAAUAAAAAAx4ExPAAAFSUlEQVR4Ae1aS2xWRRT+/r5/WihQEEQslCaYEqgJBDcaTEjLwmg0Joa4IGwIryWEHbgA3WnciQvQuNGohJjgriQIBBIUSERU1EChtOFZXn0/f77DkL9z7+2t929n5ia398ukmZl7zpnzzZk5d+78zXz6bg7TCUXTiaxwTQknPeJphNMIJ2wG0iWdsIAG6KQRDkxJwjrSCCcsoAE6JYEeFx3v70PdmrGBWi/g6IGxptVaPEtaZ0t6vmYCCStKn70HFseIJ8KOSerDxbOHlQe7f9I9cVSPJ8LMUjp8Tf2R8XrG6hVPjNk4bKbsRtiXfn3NMJ+s9tslrFyPJRuHzZoLwmFjx9LvIkuHZeNYdrjdCPvSr6/p29K+pqX4241wlBOyOmyFrQLjtG0SzqBytpRsNSqqUFaB0iyKS1BUjHNHjBOJatAw4VnzUf8aXlyOF+pQvRAlZeP4kct5CAdju/Uweh/hQTtu/Ysbv0vFIIwRrl6Aph1Y+iqQGXNvsBddneh9jP4uDPRisA8jQ1IUuKX1fXvtvHSXV2JmjZQF9Wh4U3pu/4fjX+LOValPHcZOWps+l6j2daH1PDqu4N51POxAf/dkPOT6n7MI85fipQYsWyvb4fEdHNo2GVNBHWNZOjcixrlR1Y4tz6K0whPt4Njj92REsXwGKmaKqdJykeICMQVjS/qXr7DxExSXom61FIWRYXR3ovsB+p5goAdD/RgawOiIFILZi4WUhGElsrNQNRdVNZLYPMjhxGFPx1QaPtuTN9X+Fy61oHGDEPvjOObVYt4SIcC9zVIQOEH3b+B+G1Y1yUTQbMffBRmYSNgYYQ5y6hvUr0XlHMmrJ7+WURm9GbOl8OVE18uykreLnr2Z+FRCPYzhQUlmnKaeR5KcWbgKiFXNotLzUMwahEnCdPrEIby9B+s24+pvz11nvmEpFJwjGiFokGYNwljSUj79cwZ82TCvrt8yJSepTiM0RYNmYZgwneM7k8nplTfGUlehHjPnUZ1GaMo4zBN+cg9nvhU/eQ6RN1OBoAoVCRqhKeMwT5guXvxZDkY8Zr7+YcEOU4WKVKcRG7BCODeKli/Av6vfkRNidFCYKnn16IrRJa0Q5vAM0YVjyBSheaf8jYK8MBVNnZyD40bzJagXoefsd7IJVdAiiD9fDlShoj1YJCxp9qB4rrblxBzyG54qVLQHi4TpdOtFXDktubpp+/9QoADFKEwVq7BLmK7z3M+PRH738tUaBnlprxExgx8JYWNZJ8yzsToM8/DEs3EQ7FTHMopR2DasEyYBfjy1/ymfEOp47KPETj6iAMUcwAVh5NByEPw2bmzG4hUeUmyyk48oQDEHcEIY8sEoN5UZrN/qISXNjDwye1PnGcPbcESYg/767GqWN1U6VFM90vvt1d0R5roNwwSPwlQm3W/yAiCiE2/tkgvN0VHMXRRRw6SYU8I3L+PllWhY5yHA/OwSxu6lIzrNy73FK+WenZ8KvKxrv4y7rRFVzYg5jTBd5l0kS4xwl7RiJKkP7ZowfzrL/3qm13WfrNZdE7ZKJorxaUfYRdL6YD9qG0NnP7/C2y7hx49CxUw9cBFh/sKiQ/0OzB7fv3z4xHQVg3UX72H+LLjxY9TUorMN3++VXxLzmOBRXsZsxUWEyZA8yZacyZwkFdyz5bguCHOYIOdY2NITF0taxZN/dZJsjrvI88KWKo4irLzX4xwLW7rhlDDHI+cf9skv+iy+BGYppD6zTpe0b+xYmq4jHAtJfdCUsD4bSaynEU5iVHVOaYT12UhiPY1wEqOqc0ojrM9GEuvTLsJPAfIlnW2mDFl2AAAAAElFTkSuQmCC;" vertex="1" parent="1">
          <mxGeometry x="-116" y="410" width="80" height="80" as="geometry" />
        </mxCell>
        <mxCell id="FoVjViIGeTf74Zc5e6bM-18" value="" style="shape=image;verticalLabelPosition=bottom;labelBackgroundColor=default;verticalAlign=top;aspect=fixed;imageAspect=0;image=data:image/png,iVBORw0KGgoAAAANSUhEUgAAAFAAAABQCAIAAAABc2X6AAAAAXNSR0IArs4c6QAAAERlWElmTU0AKgAAAAgAAYdpAAQAAAABAAAAGgAAAAAAA6ABAAMAAAABAAEAAKACAAQAAAABAAAAUKADAAQAAAABAAAAUAAAAAAx4ExPAAAKPElEQVR4Ae1be0yb1xUHbAN+P/CDp837TciLEmiyLM3SlrRBbdJtrbRla9Onpu2PTdq6adXU/dXtn03rJrWp1i57RIsmrVqyVqzpK1FKYHmWBAIBAuaNMcb4gY1tYD9zE8sC43z3fsZMidEn6/P1veec3z3n3vO4l+SfHdMn3U9/KfcT2CDWBOB7XeMJDSc0fI/NQMKk7zGFroKT0PCqKbnHGu47DQtjrkBxqkqnLFHJctUyo1qap5LlSdLUqUKJSChJFYpFArFQkBZYmPcveHwBjz8w5wvMzc3P2F3DM+7hGdeQ3TUyNdvr8dljLhghGBvAWeoqk74+V7c1T7s1Q1GYnJQcXVwRkAvFkrTIvZaSlqYdt4atl0emLpst7eMznZH7MbUmM2dLyckpRl1dlfGxSuN+tSwvxB0am7R3Q2M2lzmoN9fw3LwNjcvK9ECxUC+UDFUHFR5Uu0SSpgEF2IJGZsKnQVWOxhBBUOga+rBz6IOhqQtLS4uhdrYXFsAiQfqWom/urHwZyiRcHXPjvWOfD1svQSdAu7i0wCYNGZWSLADmZXvZVpL9VYUki7RD7ee63rrSf8K/4GWmTwcYtlpXenjfllehE7C0u0c6Bt7H3I9ar8IOmYWIMhAcc7SbYUebCp5USXPRE/Zy+sobF27+mY0jBWClJPvrO/9QkNkIroOWttauozeGW3gqMwrUFT9B7RV5jz5Y+RI2C/w0MNH6j3Pfm50bW9Htrl+5Apal61589CRs2OY0f3jxtRvD/7kr6XXqANj7t/9SIzfBwo+2NLu8U1SMBLuelHIZcLDxt/mGht6xz949/dTETBeXIevUx+rou9z/9+yMmlztVpU057r5FBUjroFHac5DoHvi7MvzficVg/XoDBkgCSgTqahYcAXs9tpAFx6Iivr6da40NoE4kYqKC1fANtcg6DbXv1Ff9l0qBuvRGTI01/8KlKedA7T0OQN2DoI0AgZwwu5VlvM1Wk4x6Q++4A4ZIAkI2ugBcw0tbcuAR6e/hAeGYzi892/YPK4NnsSeEYc9LFNdWWV6vMbUjCgdOOH/EX5na2qsjlu088gV8PQyYKfHcrTlQH3ZszvKntMqivds+iEeu3vUPNlmnvrvkOWCZfbmwqKfVojV/QUpIr2y1KivM+keMBnqSciBbnCKbT3vtve89609x5a/Ups0V8BEwxnyfETCX3S91dr1dnH27irTgfLcffANqsJDtYWHIAHikBmnecrRZ3X0O+YmXB4L/KTLM4V9NbDgCyzOBxa8C4sBQYpQKEgXpqQJBalpIrlMrIOfl4n1CkmmVlGkUxSr5SZEGqGJcHomu0dOd5pP9Y2dIQFWhrwQvxI1hLpxeeEO2AxyyPgQ64ElHgTPePA1U1MFPRh123O0tWqZCcFJKMbmIkHEPjATq3Ng1Prl0NRF2M6ErTM8kIT+VbIcJBJEDREprNXIFbAv4IauoAeE8uEBHeQYt13HA0sDD6RQiEA18vwMRQE+kf0gPUbqkyqSBj+Xs2LkHoj+SSaMLMrnd+MTCTCyKwAgD5ZJlMQIGVVKshBZFMPy4QoYYCAKAANGOOAVEwkpsaPguTVxbsVPMfyaIS9Ylod6AWMUV7eErmTBADDeN/aPAGZwwhCbAjBZMP8XgBVBDU871lnDBDA2aj7qLTA0NlS8gPyeD5E7GqZ2wmBKt4YxAHkZs6xfqf7+I1t/juGLS4G/fHr45ugnbKRuA15vDfNfwzsrXyEIscc2VrzAhhb+Gbs0vAN2dQYKFGvY7bXCOcHNpKcqGThhSHgtqiR7z3f2HoeF05ICWvhhh3scIRDtWPSnAIzeRMnEohiYtVx6nXhOr28Wvrc0Z+/zj7z/yv6WalNzeFwVnTKfBQzKFGsYvbFvoQSNZTw6fTW6WBF/vTb4L5RadYoSJCEoXTeUP99QfiRXu+WZ3e8gijjf/c7F3uN3LTDwWcCQimuJhwDIyag16R8Yt10btLRHhHTXRuDB2kNEjWdgsrWt+48OzwTiZ3g7GHlDxRGF2IDzB5Qm1yJVW3gwT7eNBHwWe89a3dZqpwMM3ZbnPmx3D8eqiIftGsbS1vPemK0DyQOQo1K1o/y5osydC4u+aWf/6qoojALd0kTSatMBHHT0jZ9BlLoWvNXtdICxXW0p+ga0dLn/xGpaPFqWkF2hwo4SNxazTlmM9AMJMCob0nQtTMDtnQ4Rf6j2R8jJP+v4jUFVlqmuqi04ODh5HulUqEP0FzrASUlLjRUvpqQIvuh6Ozpdtl/hCLpHPoKdIxqH0cLOTfq6HWXPVhsfF6cpgdzrdzZtfx0pyrGPn8aCz9JUZWmqq0yPdQ792+Ob5cKUDrDP79pd8wPo+ez1N1cbGxd+XPrAmLGr4WyhZ+Rj5F8auRGuqChrF1x3hbEJOTPm5Wzn7+EjOwb+qVeV5mRsThPJcCrAhTjdLg2QmHvsk0iMcajJhQGfPljeo+evnmp/FSdMNflPoAQPHwGCSNpee7p30n4DNQYUD9CCIgRHRnSAQRSeCYARUccBMMEA141yBx4U7pq2/WJH+RGEHFApzi5JB+wpZ66/uY6AQXpDcibgRHkI3D+5+usLfX81qCqg6nm/Y3S6I4obWzER1BrmH1GvkIDqKwop6I9M2DNvx+ZMNZZ0pgstMWZjs+I7cSVLJswLMM+smEEzGAJvhCJhaNLZiNBreDkpU0mNYM/GknkUyoMo62JnRuLBTIRaaH/Ag7AGjJV3biIw86YdSBYww/FKOCNqwBi8UcuY/wKG8CyAN2qjJvV9wj1caVTvLIA3WMP0B2jhM8IOOP4b9YaZ9IZoGIdYJLxjK0eHlMyi4dtrWJYfohKHF4U0C7E0zreQJPFhxwIYgSvi9fRUBW6N8uFNNfa2PfNbwODIAhjD4r9Rx2QBswOO/zLW8DhPCjclRg0TwPHcqLW3j/zZ0wYCmx9gRVH45K3ru1ZZDPq4bsiTCyPgEesVMEZtDcUXnhJwGY6SPe64IIbnf1mcrogXEg7uQZKqwv2a2sKncH1odm7c4aa+2BqittYLztzK8/YdevB3daXfRjntZPtP+F+R4nqbNqJMOA3cu/nH5Pb6rHusa+iDW5Otg5Nt3AsuEcmiQFtgaCjM2lWZ10Q8Hy5ZnGr/Kce6ZESaoUZegEEFAjVWvLSt+BlUTwlRHGTiHzUssz0W+80ZlxlXu8jlJZ9/LuzakgjXlkT4RwChBHUpucQgFxuwBepVZXplWYgUCOJ+/aW+4+09f2I7KwzhDL3wBUwIIe7Lzqgtz3s4X1+frdmEmCTEgOEFZ4vB20qWdhzoADADhShDqIt4EWlBq8Ea8vKRYjDoVRTolSUox+AsCpfocDIiTdeIU9WIDfHgMAXhodfn9PodiNi8PgfOE1CUg6vDdUbcJkSNLsqdpYgCcG+MDeBwfgAP58Hff4TTjOE7o1uKoQRxJpUAHOcJjzu7hIbjPuVxZpjQcJwnPO7sEhqO+5THmWFCw3Ge8Liz+x/EX46N2mKARgAAAABJRU5ErkJggg==;" vertex="1" parent="1">
          <mxGeometry x="-257" y="410" width="80" height="80" as="geometry" />
        </mxCell>
        <mxCell id="FoVjViIGeTf74Zc5e6bM-19" value="" style="shape=image;verticalLabelPosition=bottom;labelBackgroundColor=default;verticalAlign=top;aspect=fixed;imageAspect=0;image=data:image/png,iVBORw0KGgoAAAANSUhEUgAAAFAAAABQCAIAAAABc2X6AAAAAXNSR0IArs4c6QAAAERlWElmTU0AKgAAAAgAAYdpAAQAAAABAAAAGgAAAAAAA6ABAAMAAAABAAEAAKACAAQAAAABAAAAUKADAAQAAAABAAAAUAAAAAAx4ExPAAAKPElEQVR4Ae1be0yb1xUHbAN+P/CDp837TciLEmiyLM3SlrRBbdJtrbRla9Onpu2PTdq6adXU/dXtn03rJrWp1i57RIsmrVqyVqzpK1FKYHmWBAIBAuaNMcb4gY1tYD9zE8sC43z3fsZMidEn6/P1veec3z3n3vO4l+SfHdMn3U9/KfcT2CDWBOB7XeMJDSc0fI/NQMKk7zGFroKT0PCqKbnHGu47DQtjrkBxqkqnLFHJctUyo1qap5LlSdLUqUKJSChJFYpFArFQkBZYmPcveHwBjz8w5wvMzc3P2F3DM+7hGdeQ3TUyNdvr8dljLhghGBvAWeoqk74+V7c1T7s1Q1GYnJQcXVwRkAvFkrTIvZaSlqYdt4atl0emLpst7eMznZH7MbUmM2dLyckpRl1dlfGxSuN+tSwvxB0am7R3Q2M2lzmoN9fw3LwNjcvK9ECxUC+UDFUHFR5Uu0SSpgEF2IJGZsKnQVWOxhBBUOga+rBz6IOhqQtLS4uhdrYXFsAiQfqWom/urHwZyiRcHXPjvWOfD1svQSdAu7i0wCYNGZWSLADmZXvZVpL9VYUki7RD7ee63rrSf8K/4GWmTwcYtlpXenjfllehE7C0u0c6Bt7H3I9ar8IOmYWIMhAcc7SbYUebCp5USXPRE/Zy+sobF27+mY0jBWClJPvrO/9QkNkIroOWttauozeGW3gqMwrUFT9B7RV5jz5Y+RI2C/w0MNH6j3Pfm50bW9Htrl+5Apal61589CRs2OY0f3jxtRvD/7kr6XXqANj7t/9SIzfBwo+2NLu8U1SMBLuelHIZcLDxt/mGht6xz949/dTETBeXIevUx+rou9z/9+yMmlztVpU057r5FBUjroFHac5DoHvi7MvzficVg/XoDBkgCSgTqahYcAXs9tpAFx6Iivr6da40NoE4kYqKC1fANtcg6DbXv1Ff9l0qBuvRGTI01/8KlKedA7T0OQN2DoI0AgZwwu5VlvM1Wk4x6Q++4A4ZIAkI2ugBcw0tbcuAR6e/hAeGYzi892/YPK4NnsSeEYc9LFNdWWV6vMbUjCgdOOH/EX5na2qsjlu088gV8PQyYKfHcrTlQH3ZszvKntMqivds+iEeu3vUPNlmnvrvkOWCZfbmwqKfVojV/QUpIr2y1KivM+keMBnqSciBbnCKbT3vtve89609x5a/Ups0V8BEwxnyfETCX3S91dr1dnH27irTgfLcffANqsJDtYWHIAHikBmnecrRZ3X0O+YmXB4L/KTLM4V9NbDgCyzOBxa8C4sBQYpQKEgXpqQJBalpIrlMrIOfl4n1CkmmVlGkUxSr5SZEGqGJcHomu0dOd5pP9Y2dIQFWhrwQvxI1hLpxeeEO2AxyyPgQ64ElHgTPePA1U1MFPRh123O0tWqZCcFJKMbmIkHEPjATq3Ng1Prl0NRF2M6ErTM8kIT+VbIcJBJEDREprNXIFbAv4IauoAeE8uEBHeQYt13HA0sDD6RQiEA18vwMRQE+kf0gPUbqkyqSBj+Xs2LkHoj+SSaMLMrnd+MTCTCyKwAgD5ZJlMQIGVVKshBZFMPy4QoYYCAKAANGOOAVEwkpsaPguTVxbsVPMfyaIS9Ylod6AWMUV7eErmTBADDeN/aPAGZwwhCbAjBZMP8XgBVBDU871lnDBDA2aj7qLTA0NlS8gPyeD5E7GqZ2wmBKt4YxAHkZs6xfqf7+I1t/juGLS4G/fHr45ugnbKRuA15vDfNfwzsrXyEIscc2VrzAhhb+Gbs0vAN2dQYKFGvY7bXCOcHNpKcqGThhSHgtqiR7z3f2HoeF05ICWvhhh3scIRDtWPSnAIzeRMnEohiYtVx6nXhOr28Wvrc0Z+/zj7z/yv6WalNzeFwVnTKfBQzKFGsYvbFvoQSNZTw6fTW6WBF/vTb4L5RadYoSJCEoXTeUP99QfiRXu+WZ3e8gijjf/c7F3uN3LTDwWcCQimuJhwDIyag16R8Yt10btLRHhHTXRuDB2kNEjWdgsrWt+48OzwTiZ3g7GHlDxRGF2IDzB5Qm1yJVW3gwT7eNBHwWe89a3dZqpwMM3ZbnPmx3D8eqiIftGsbS1vPemK0DyQOQo1K1o/y5osydC4u+aWf/6qoojALd0kTSatMBHHT0jZ9BlLoWvNXtdICxXW0p+ga0dLn/xGpaPFqWkF2hwo4SNxazTlmM9AMJMCob0nQtTMDtnQ4Rf6j2R8jJP+v4jUFVlqmuqi04ODh5HulUqEP0FzrASUlLjRUvpqQIvuh6Ozpdtl/hCLpHPoKdIxqH0cLOTfq6HWXPVhsfF6cpgdzrdzZtfx0pyrGPn8aCz9JUZWmqq0yPdQ792+Ob5cKUDrDP79pd8wPo+ez1N1cbGxd+XPrAmLGr4WyhZ+Rj5F8auRGuqChrF1x3hbEJOTPm5Wzn7+EjOwb+qVeV5mRsThPJcCrAhTjdLg2QmHvsk0iMcajJhQGfPljeo+evnmp/FSdMNflPoAQPHwGCSNpee7p30n4DNQYUD9CCIgRHRnSAQRSeCYARUccBMMEA141yBx4U7pq2/WJH+RGEHFApzi5JB+wpZ66/uY6AQXpDcibgRHkI3D+5+usLfX81qCqg6nm/Y3S6I4obWzER1BrmH1GvkIDqKwop6I9M2DNvx+ZMNZZ0pgstMWZjs+I7cSVLJswLMM+smEEzGAJvhCJhaNLZiNBreDkpU0mNYM/GknkUyoMo62JnRuLBTIRaaH/Ag7AGjJV3biIw86YdSBYww/FKOCNqwBi8UcuY/wKG8CyAN2qjJvV9wj1caVTvLIA3WMP0B2jhM8IOOP4b9YaZ9IZoGIdYJLxjK0eHlMyi4dtrWJYfohKHF4U0C7E0zreQJPFhxwIYgSvi9fRUBW6N8uFNNfa2PfNbwODIAhjD4r9Rx2QBswOO/zLW8DhPCjclRg0TwPHcqLW3j/zZ0wYCmx9gRVH45K3ru1ZZDPq4bsiTCyPgEesVMEZtDcUXnhJwGY6SPe64IIbnf1mcrogXEg7uQZKqwv2a2sKncH1odm7c4aa+2BqittYLztzK8/YdevB3daXfRjntZPtP+F+R4nqbNqJMOA3cu/nH5Pb6rHusa+iDW5Otg5Nt3AsuEcmiQFtgaCjM2lWZ10Q8Hy5ZnGr/Kce6ZESaoUZegEEFAjVWvLSt+BlUTwlRHGTiHzUssz0W+80ZlxlXu8jlJZ9/LuzakgjXlkT4RwChBHUpucQgFxuwBepVZXplWYgUCOJ+/aW+4+09f2I7KwzhDL3wBUwIIe7Lzqgtz3s4X1+frdmEmCTEgOEFZ4vB20qWdhzoADADhShDqIt4EWlBq8Ea8vKRYjDoVRTolSUox+AsCpfocDIiTdeIU9WIDfHgMAXhodfn9PodiNi8PgfOE1CUg6vDdUbcJkSNLsqdpYgCcG+MDeBwfgAP58Hff4TTjOE7o1uKoQRxJpUAHOcJjzu7hIbjPuVxZpjQcJwnPO7sEhqO+5THmWFCw3Ge8Liz+x/EX46N2mKARgAAAABJRU5ErkJggg==;" vertex="1" parent="1">
          <mxGeometry x="18" y="410" width="80" height="80" as="geometry" />
        </mxCell>
        <mxCell id="FoVjViIGeTf74Zc5e6bM-20" value="" style="shape=image;verticalLabelPosition=bottom;labelBackgroundColor=default;verticalAlign=top;aspect=fixed;imageAspect=0;image=data:image/png,iVBORw0KGgoAAAANSUhEUgAAADAAAAAwCAYAAABXAvmHAAAAAXNSR0IArs4c6QAAAERlWElmTU0AKgAAAAgAAYdpAAQAAAABAAAAGgAAAAAAA6ABAAMAAAABAAEAAKACAAQAAAABAAAAMKADAAQAAAABAAAAMAAAAADbN2wMAAAFi0lEQVRoBe1ZW2icRRQ+s5tNoIKxXopii1CxXkqLCLZFpRT1Ja1t0oARhRZpwbtiN0kVHzSIuqW5iQ+ieREFkRJ6SaLpQx8sgqWIKHipoG0hqEhEbatU2232H79v9j/r5O+/ZjV7cTED858z55w5l5kzs2cSkblW2xUwar631b6HwVod/5ehFRnvHjHr6GNCHa0X5+mv72uDBqCwa8QUdqWv1SJYEZ+mcrWC6pPaL+yAEuoNzgVQ6x07L99r7VCp9vVc1n0KzeoW0htBV6PU1ZuNnNpUHXW/A3MB6FbWCtb9Dpx3iONWMnpwojIz8aPy5Rz/P3ag2DWpK1+MX86VVl1qU8clpZAKlwP2tdkWsTLkdBl5oGuf2e/rnYnvyxKvfgrlnV8I2wsLgfhezcT3ZWsSgMhpz4echyvq03xZ5U+DVd8BY+VheHCCXlgjL0/zZjrtRCg7TYTnzT9zVT8DnaPm/d4NNoN33044uAWHcjE8vCf0chfSag1xvAUzXZAN6UVBSQFET35UWxzfX6WofNM5eT3bKA+CvizsKvJ4iByjjBL/DlYlhRDgSQY52GYvojNP7De/4mWev4lEJkBaGnbifLUPORmgnMO51OF4kU9JO1BsNamY+orxPVt0bHlg5QbAQ45upZ0QL6pM54g5Qry/1Wag8DWk0UYMd5IWziGaD46Y10oKwJP/d6iVA/B0OSY/ip4PQOQ6KoPD3VgI5yyW4ydGhHa9++ID2mOORh0xrSoBJFPyam5KHoGz9/VvsF/bBIKx0hz6c3XBLyMXhngzftB2Q+YLjO9F/4M6CnIeUpUzsG23OY6FfQh2A1ydPXCM6cOcHkSK3Kb+EMfNxKv1ZCjzLPCAc6lD5XxYlQBoEHn+Fq7OsdD4d4C34uykt4+aD0OaEMc1u408dMoI53Au8biWzzhw9EDGCf0Tmh5o6JvEvAXZhFz6zF7zc1+7vUpy8g1oDYlAlqXHzJeqV23rXNIH1tulQUI+BzolSbmma4+ZeGmjvaQxwDkRmYTs5ZQr7ADyc5yEMrbPqCsVyGpCE8hmDrGio77z5MU1ylAWvBRC2EQZ1QWUgblWOMT6115lzBbC+B7cIHdiizOZdfagDWQFbxPk+Zul6qYsprRCfiV0zKcuzqVu1VHYASWUCy5KyRAMfQJ916Ya5DCcZ17z3jzmYCkflcVcpwO6qJO6dXrFAugYNjlcHy1IzY9hbAn6fBrNNcX/IJEXbZ4s5y6hLuqkbpWtWAA00L3X/NiUdddkGkNn9MwZOafGZ4LJU8j+fOPcNHVRpz+vogHQEGqas7gxBoEe5bg5KQsItQ202RVxOGkN8+SykHeUOqhLZRVWPAA1hAN4hPhUThYTvtJim1D77MBB1dKCB/wQaeRRJhBxv9I6l7Roq1oAcMYFYBJyB1f9bKN8ipx+yjlkUbixo5FGHmVwi91Oms4lHm0IrrINK7oIB+9JlAisaa5A/wWddVASzn6VNHJ/ep/5CGPBPxpXArwBp1jMMe9PoV+M/gNKkHcSKDPwq/wtxoVW0QDwC8uyYAd6Y2iRTiXRczDcl8rKc9G8ZvpkU/I8rt1OlQ0hgGTRnw7PFMd//RK7URk/qCa3Q90Aegr9baz2KuTHVmfCysSUlRejzpNHGqJ8AbIToexWNxc6MKauATxJux0Pn4rtgNZCSJ0OFGjDNGjxjO9vdYd2FZwaPx3I3T1j5nd1hrBnvZ13QUKG4dhaDA93jsgtRqAFrbfNdgDbBbRQC1UsABqMawN32StRpH2ApeNtxIKuB6f0oJNNyBo35hPTynEUfavT75rvHa/Ip+oB0A9WpijuWCvdFOcXywU8etpZgcbxfVrVrlHfKB377Ua5GXmxBTtxADyW3pPESSOvFOd9nXN4rVbgT4dY8WGRX/WBAAAAAElFTkSuQmCC;rotation=0;" vertex="1" parent="1">
          <mxGeometry x="148" y="410" width="80" height="80" as="geometry" />
        </mxCell>
        <mxCell id="FoVjViIGeTf74Zc5e6bM-24" value="&lt;h2&gt;&lt;b&gt;Data Source&lt;/b&gt;&lt;/h2&gt;" style="text;html=1;align=center;verticalAlign=middle;whiteSpace=wrap;rounded=0;" vertex="1" parent="1">
          <mxGeometry x="-547.5" y="512" width="71" height="43" as="geometry" />
        </mxCell>
        <mxCell id="FoVjViIGeTf74Zc5e6bM-25" value="" style="html=1;shadow=0;dashed=0;align=center;verticalAlign=middle;shape=mxgraph.arrows2.arrow;dy=0.6;dx=40;notch=0;fillColor=#000000;" vertex="1" parent="1">
          <mxGeometry x="-407" y="433.5" width="65" height="37" as="geometry" />
        </mxCell>
        <mxCell id="FoVjViIGeTf74Zc5e6bM-26" value="" style="endArrow=classic;html=1;rounded=0;exitX=1;exitY=0.5;exitDx=0;exitDy=0;entryX=0;entryY=0.5;entryDx=0;entryDy=0;" edge="1" parent="1" source="FoVjViIGeTf74Zc5e6bM-18" target="FoVjViIGeTf74Zc5e6bM-16">
          <mxGeometry width="50" height="50" relative="1" as="geometry">
            <mxPoint x="-169" y="569" as="sourcePoint" />
            <mxPoint x="-119" y="519" as="targetPoint" />
          </mxGeometry>
        </mxCell>
        <mxCell id="FoVjViIGeTf74Zc5e6bM-27" value="" style="endArrow=classic;html=1;rounded=0;exitX=1;exitY=0.5;exitDx=0;exitDy=0;entryX=0;entryY=0.5;entryDx=0;entryDy=0;" edge="1" parent="1" source="FoVjViIGeTf74Zc5e6bM-16" target="FoVjViIGeTf74Zc5e6bM-19">
          <mxGeometry width="50" height="50" relative="1" as="geometry">
            <mxPoint x="-167" y="460" as="sourcePoint" />
            <mxPoint x="-107" y="460" as="targetPoint" />
          </mxGeometry>
        </mxCell>
        <mxCell id="FoVjViIGeTf74Zc5e6bM-28" value="" style="endArrow=classic;html=1;rounded=0;exitX=1;exitY=0.5;exitDx=0;exitDy=0;entryX=0;entryY=0.5;entryDx=0;entryDy=0;" edge="1" parent="1" source="FoVjViIGeTf74Zc5e6bM-19" target="FoVjViIGeTf74Zc5e6bM-20">
          <mxGeometry width="50" height="50" relative="1" as="geometry">
            <mxPoint x="-26" y="460" as="sourcePoint" />
            <mxPoint x="27" y="460" as="targetPoint" />
          </mxGeometry>
        </mxCell>
        <mxCell id="FoVjViIGeTf74Zc5e6bM-29" value="" style="endArrow=classic;html=1;rounded=0;exitX=1;exitY=0.5;exitDx=0;exitDy=0;entryX=0;entryY=0.5;entryDx=0;entryDy=0;" edge="1" parent="1" source="FoVjViIGeTf74Zc5e6bM-20" target="FoVjViIGeTf74Zc5e6bM-13">
          <mxGeometry width="50" height="50" relative="1" as="geometry">
            <mxPoint x="108" y="460" as="sourcePoint" />
            <mxPoint x="157" y="460" as="targetPoint" />
          </mxGeometry>
        </mxCell>
        <mxCell id="FoVjViIGeTf74Zc5e6bM-30" value="" style="endArrow=classic;html=1;rounded=0;exitX=1;exitY=0.5;exitDx=0;exitDy=0;entryX=0;entryY=0.5;entryDx=0;entryDy=0;" edge="1" parent="1" source="FoVjViIGeTf74Zc5e6bM-13">
          <mxGeometry width="50" height="50" relative="1" as="geometry">
            <mxPoint x="237" y="460" as="sourcePoint" />
            <mxPoint x="408" y="450" as="targetPoint" />
          </mxGeometry>
        </mxCell>
        <mxCell id="FoVjViIGeTf74Zc5e6bM-31" value="&lt;h3&gt;&lt;b&gt;S3&lt;br&gt;&lt;/b&gt;&lt;b&gt;Staging&lt;/b&gt;&lt;/h3&gt;" style="text;html=1;align=center;verticalAlign=middle;whiteSpace=wrap;rounded=0;" vertex="1" parent="1">
          <mxGeometry x="-257" y="494" width="80" height="62" as="geometry" />
        </mxCell>
        <mxCell id="FoVjViIGeTf74Zc5e6bM-33" value="&lt;h4&gt;Glue&amp;nbsp;&lt;br&gt;ELT&lt;/h4&gt;" style="text;html=1;align=center;verticalAlign=middle;whiteSpace=wrap;rounded=0;rotation=0;" vertex="1" parent="1">
          <mxGeometry x="-115" y="494" width="80" height="62" as="geometry" />
        </mxCell>
        <mxCell id="FoVjViIGeTf74Zc5e6bM-34" value="&lt;h3&gt;&lt;b&gt;S3&lt;br&gt;&lt;/b&gt;&lt;b&gt;DW&lt;/b&gt;&lt;/h3&gt;" style="text;html=1;align=center;verticalAlign=middle;whiteSpace=wrap;rounded=0;" vertex="1" parent="1">
          <mxGeometry x="18" y="494" width="80" height="62" as="geometry" />
        </mxCell>
        <mxCell id="FoVjViIGeTf74Zc5e6bM-35" value="&lt;h4&gt;Crawler&lt;/h4&gt;" style="text;html=1;align=center;verticalAlign=middle;whiteSpace=wrap;rounded=0;rotation=0;" vertex="1" parent="1">
          <mxGeometry x="146" y="493" width="80" height="62" as="geometry" />
        </mxCell>
        <mxCell id="FoVjViIGeTf74Zc5e6bM-36" value="" style="shape=image;verticalLabelPosition=bottom;labelBackgroundColor=default;verticalAlign=top;aspect=fixed;imageAspect=0;image=data:image/png,iVBORw0KGgoAAAANSUhEUgAAAEAAAABACAYAAACqaXHeAAAABHNCSVQICAgIfAhkiAAAAAlwSFlzAAAB2AAAAdgB+lymcgAAABl0RVh0U29mdHdhcmUAd3d3Lmlua3NjYXBlLm9yZ5vuPBoAAArZSURBVHic3Zt7cFTVGcB/39177z7y2M1rEyAUigIiUhFhBqtQZ9QqDZAsGkeYsVqs+FelnbEzOtPpZPynM9rR0f6ltBY6HWxRSXgER8VWpXXUlgEFHKKgqBiSkMduNpt939M/NoRAks0+o/Y3s5Pk3PN95ztfzjn7ne+cKxQZ326fN65Zq1GyGFFXoWQBUAF4BEoBFAwBfmBAQYem5CSiTuhKDrVuaO0ppn1SDKXrXtmwwhK1UUTdBizOox0FnABetzTrxQONe/9bMCNHKJgD1hxYU67HzC1KyWZgUaH0jkXBx5qoP4uo5/Y27g0WQmfeDrh9V3Olbsa2ipJfkBra08EA8Kwy4s+0r20fyEdR7g5QyNo9jfei5PdATT5G5EE/8PjyD5f+oaWlxcpFQU4OWL9n/ZWWpe0AfpiLfKFRov5tKbnvVV/b6WxltWwF1rY1+ixL+w/fks4DiJIbbXCkYbfvnmxlbZlWbGlp0cq2ep4CeRpwZNvQNGAX4a4F91xVvmnRPQffeustlYlQRlOgeVezOWzEtwtszM/GaWPnuR7v/Ycfej4+VcUpHdC8q9kMG/FW4CcFMW2aEFHtnd21vqmckH4NUEhYT2zjO9Z5AKWkoc7bs6OlpSVtH9OuAeuWNj2N8FBhTZs+BJZ8Xdtd8unfT76Rps7ENOz2NYuoXcUxbXoR2LTP1/biJM/Gs6a16QodDitwF9e06UEgYFm2Ze13vvLZ5c/Gzw+F2OAv/y+dB1DgFi25HTX+Hz7OAev2ND7AtyjIKSCrGlp9P7288BKP3L6rudIw4h1AdT4tqaQiOZQgHowjCMlwMrWxvYAGNocNMQS9VMfm0ou0MR9Hjw4L23xt/gsF+tinphH/pcq08wqi3REinREiXWGi3VHi56MkggkSoUR2ZgnopQZmpYlRZWBW2bHX2XHMcmHWmIgUzDvepJKHgcfHNJ1izYE15bao/QxptrSJYILA0QGGT4cYPh3KvqM5oJkajtlOSq8sw3VlCa45JYiel0P6Nc2aeyGfMDoC9Ji5RaXpfOjUEF/+8XOsWE67zpyxYtaow3kt5ZCShWW4l3oou7oczZ71fq7SStoeBJ6CMQ5QSu5LJ9W566tp7/xEWDGL4LEAwWMBRNcov9ZN5U1VuOaUZKxDiXqAEQcIpHJ4SrM+mEwgOZzk5G+O52t7UXHWu6i+xUv5D9wZLaiaZi3b27j3iAZgiUq7y9McGpqZ9VAbowBsLtvoB63wS3747DBf7TjD6ac/Yejk1OnCZNK2CUamgMCP01UWTahcXU3vwfEZatEEe50d5/dKMGtMDI+J4TFSH7cxaWetuIUVSZIMWyRDCWK9UWK9sdTPvhjRrkhOUy5yNswXz39G1aoa6nwzJ++TqFsBxLfb542L6mKqgaNg4P1+Bo8FEBu45pTgnOvCOduV3+iYDAvCncMMfx4ifCb1M+6fcnt/CfO2zsc5xzXZYyV60quPHFpMPSYFKlZWUrGyMisjckZLzWtnvQtWpYrCXw0TOOJn8Kg/I2eEz4bTOUCsuL5aR8k1BTO6yDhnp0Zc3bqZDH8Rwv9eP/7DA6jkxNkv3a1PWD6KqMU6ohaiCrsoqaQiHohjDSexEhYqprDiFpqRmiqaQ0Nz2DA8Rm7TR8A1twTX3BJq1tTR+2YP/e/2gXXREfYZDsquKk+vRtRCHSXzs7dgBAWRcxHCXw4T+XqYSGeEWF+MRDB+aeyfBs3UMCpN7LV27DUOHPVOXHNd6OVGRvKG22DGhllUra6h7+0eot1RnLOdVN9SO3XEqGSBTg4bn+DxQfyHBwidGiKZZzhsxSyiXRGiXREgMFpuVpmUzC+jdFEZpQvKpoz4zGqTGXfWZ9t8tQ6UZSPR9/Z5uvZ0ZttQ1sT6YsT6+hh4ry8V8V1Tjnt5RWpYF+5Lp0xn5Ig6U/r/1Vew1jNFJSwCR/0Ejvox3AaVq6qpWFmVCqryo2yKZXJCc7KWEF1GFzuVVFjR3PcU8UCc7v3nOP96N5U3VVNzqxfNkbsjdFKXEzL+cq9YWUV3+7lLyjRDwzHLiXOOC/sMB4bHQC83MD0mmmP8eLViFomhBIlgnMRggmhXKq8QPRcm1htDWVM72YpZ9P6jB//7/XjX1FFxQ1UuSZWgDgTJwgHVt3gxq+2ETg9hVpm4rijBOdOV1bzUTA2z0sSsNFMFSy6mH62IxdCnQUIdQYZOBon1x9LqSoQSdL58lkQoQc1ttZkbkSKoA73AnGykyq91U35tcXKmmkOjfImb8hGnhM+G8b/fT+DIAMnh5KRy/e/25eKAXl3BJwLX525ycXHWO3HWz6KucQaBowF63+wh2h0ZV09yi6c6dIGOAthZdETX8CyvwL3MQ+Cwn/OvdxPri44+r7wh+zyuGnHA8ezX9fFYkSSR7gjxgfjIJ0YimEDFLKy4RTKSGr6aqSG6YHPa0Et1zCo7RpWJvdqOWWtHpsgViCZ4VlTgud6D//AAkbMRnN934V7qyd5oUSd0XcmhuChFlmto9FyEwRMBIl+HiZyNEOuP5vINeQmaXcM1r4SSeaWULCjDOduZprLgWVEJK3JuzhKbdUgA1rY2HQMy3hWGPhnizPOnocgpQrvXjmd5Je7lFRiezPYGWXBkv69tmQ6glLwhojJ2QOAjf9E7DxDtidJ94Bw9r3ZRdk053jvqsM8o0OUUUQdhJCWmbMmdYmm/ylTWXmOf+IEm2KvtGBWpdJjhMRG7hs2hITYNMSSVBotYWLEk8YF4KgV2fmQHOQlKKQaPBQgeH6R8qRvvHXWYk9mQIZaSnTBm3mczDVRC0fNaF+EvhnHMcuCsd2Gvc2CvcyC23HILiWCc0KkQoVNDhDrSB0Cia9Tf+73RWCFbFHzc7mtbDGPOBUTUDqXkyUwUiC7UNszIqfHJ0MsM3Nd5cF/nAQWhz4bwfzDA4If+cclRlbDo2tuZswNEyZ8u/D4aPoio50jdwPzmESi5opRZG2ez4LdXU32rd1zmSHI/Te3XbMltF/4Y3UZ1/K0jNn/jQpcgP8pVczHQDI3S+WVUrKyCJEQ7I4gpzLyrHntt9guigt/tb9ozemXmEjc27G+okLjRwTd39XVqrJGQJbekSHckbiw8ePdLo6mnS9S0r20fUEoezc/CIqPl3HkEfj228yNll6GQhj2Nh0TJjbk18+1ElLyzz9d6M3JpvDrel4KylNwnYzOU3338ltJ+dnnnYZLB9Kqv7bQS9fPi2zU9KCUPTHRDDNLMpv1Ne15m5Az9O84T7Rtad0/2MO1ysr+p7REF2wtu0vSxc/mHSx9LVyH9eiqorh7vFuBAIa2aJvaf6/HeP9WbJBmFUzf/82a91O95DthcENOKjMBfO3u8mwtyXX4UhTS0+p4QUY/kZV1xUcCT+5vaHp1oxZ+IrAPqda1NTQpeYPreEMuUQYEH9/nasrrgndOOouGVO+eJltzO6NWFbxZR8g564v596/d9nrVszq1efG3uScCbs5786FfwWHtT27ZMh/zl5H0zoqm1yZNU8rAStZUsTpjypE/BM9G48ezlsX22FOxqSPOu5tKwntgCbEbU4kLpvYzjIuoFR8zc9tLdLw0VQmFR7miv37P+umTStmnk5ekl5H6ibwEfIeoNS8nOA762o4WzMkXRL6mv27eu2orrq0XU1cAiBQskNVU8XLybMAT4FfSLqA5GXp8Xm3Vo37p9vcW0739cS/0F7A8emgAAAABJRU5ErkJggg==;" vertex="1" parent="1">
          <mxGeometry x="-545.5" y="434" width="64" height="64" as="geometry" />
        </mxCell>
        <mxCell id="FoVjViIGeTf74Zc5e6bM-37" value="&lt;h4&gt;Athena&lt;/h4&gt;" style="text;html=1;align=center;verticalAlign=middle;whiteSpace=wrap;rounded=0;rotation=0;" vertex="1" parent="1">
          <mxGeometry x="277" y="493" width="80" height="62" as="geometry" />
        </mxCell>
        <mxCell id="FoVjViIGeTf74Zc5e6bM-39" value="" style="shape=image;verticalLabelPosition=bottom;labelBackgroundColor=default;verticalAlign=top;aspect=fixed;imageAspect=0;image=data:image/png,iVBORw0KGgoAAAANSUhEUgAAAGAAAABgCAYAAADimHc4AAAACXBIWXMAAAsTAAALEwEAmpwYAAAEIElEQVR4nO2dS0hUURzGZ+M9M2hp0Gj5Go8PEDUyMS0yxI1BIbRoVRDSix5ug6KIIsomTE1rHwhSLSIqw3zUvbltE2kLidq2KCuTHmr940xa3snH3Jkz3XPG74NvE2dx/9/v/M85XeZcPR4IgiAIgiAIgiAIgiAIgiBoHtGTpDKyWDuZbJgsNkEWo2XuiZks2kU2cZs0NOwxyDKuk8l+KFA0KeppMo1OkZX88E1jUIECSQubxoBUCKGZ73ZRlmY2jQ6Za/606wVZ2nmahpJKJcx+dlWBYkhLm6w1dgAmG3G9EEtbv5DRAZ8VKIS0tMnGZQBwvxBLXwOABQCuz0JCB/wN4eNDn9L+aSbYEjTSlUKn92dQbXUuFRXmEedcaRcV5tHWjbl0sjGDnt9YoS+A74NeOrUvgwoK3A+VR+n8fE7H966hr/1evQBMDnpp9/ZM1wPkkryrPou+DXj1AXD2YPqCxZSXBZR2fv78z32iMUMPAK9uJlNhgX2t31KZS31tqaHOiHVNpTh76rGXzGsraVtNtq0GsZS+7EpRH8ClY37bg2+uCNBYj/rBU5jHe31UU5lrq+XcoXT1ATTU2WfOvcurXA+TonRva6qtlvqaHPUBVK4P2B763X2f60FSlJ545LPVUlocUB9ASbF9/f/Sp9/yQ3McvhkDgAUAWnfA5KA3dFCo3hCgTRUBCjb5Fz2doQMsuQBE4OGhin8DAOv/dICY+eEAqsoX3lzRAVZ8N9WlNlcAsAAgoTZhjg4AAEdyOsPQAcyWh/YAJh2e27EESQYQdHhuBwDJAKodntsBQDIA7vDUAgAAQAm1CXN0gB4AJiM8LeE/YnECEIzwtAQAcQJQHeFpCQDiBIBLHrfQeKfPv2w2YQ4AAEA6dYDsUwtHBzgDIPvUwgHAGQDZpxYOAM4AuBUsT/RTUMU6+8x+e9enLYAPPRr+NLGhLsv20Hea07QF0NOSZhtTX5OtPoDmsJ+ni594v3/g0w7AWI+XaqtybGPExRPlAby5LS5o2IsTl95UCZZHOC48fHFBY7RbgwsawheP+pUNlkc57swB57PfNQDims++nWu1CJZHMG7PjszQrU9tAMxCuHDE/+e+mIrB8iXGiaVUrPvRhu8qgFm/vpUcWpJUCpZHMO784XQa7U6OqXYlACxk1QGQJCsLQLyA42EhiBuVqoxLeADzv4xbrcy4hAcgXj0Hm/yhGbnY62i3xiU8gOViDwAwzQGYbNztWUS62mSfZADAZystNz9babI212eSpa1bYgcwlFSKTxezaMKfpqdGScwAfneB0anAbCLN3C4l/Dmfrx9QoCjSw0Y/PfMkSQMwB0IHliO2WPhTob+kITv8f/YEk7WKHR7flWY0821tkcUVaWs+BEEQBEEQBEEQBEEQBEGQJ9H0CyPeo/+YttJQAAAAAElFTkSuQmCC;rotation=0;" vertex="1" parent="1">
          <mxGeometry x="403" y="408" width="80" height="80" as="geometry" />
        </mxCell>
        <mxCell id="FoVjViIGeTf74Zc5e6bM-40" value="&lt;h4&gt;Power BI&lt;/h4&gt;" style="text;html=1;align=center;verticalAlign=middle;whiteSpace=wrap;rounded=0;rotation=0;" vertex="1" parent="1">
          <mxGeometry x="403" y="493" width="80" height="62" as="geometry" />
        </mxCell>
        <mxCell id="FoVjViIGeTf74Zc5e6bM-41" value="&lt;h1&gt;Project Architecture&lt;/h1&gt;" style="text;html=1;align=center;verticalAlign=middle;whiteSpace=wrap;rounded=0;" vertex="1" parent="1">
          <mxGeometry x="-85" y="211" width="315" height="30" as="geometry" />
        </mxCell>
        <mxCell id="FoVjViIGeTf74Zc5e6bM-43" value="" style="shape=image;verticalLabelPosition=bottom;labelBackgroundColor=default;verticalAlign=top;aspect=fixed;imageAspect=0;image=data:image/png,iVBORw0KGgoAAAANSUhEUgAAAGQAAABkCAYAAABw4pVUAAAACXBIWXMAAAsTAAALEwEAmpwYAAANmElEQVR4nO2dCVAUVxrHe+/dqt2trdqq3cpetVuV3Y0KyC0zg1zKjFxGFDSI13orauLGY4NRY8XNqsQoKgESjxjxiGfEWxREoBsULXRRNx5Rcd5Dh+7B26iYb+t7A2RgZoAZeg6w/1VfOTJNT7/+8X3fe997r4fjFClSpEiRIkWKFClSpEiRIkWKFClSpEiRIo/SdoAfVNTRQF4icwSR7OMlclEQqVEQSQMv0qf4mpfIBUGiewSJLBLqaiMOwuWfuPu6u50Ew62/8iLJYjdfomCXibSeF2kubyD+7m5Hl5dgvOWDf+28SF7YDcIqHHKotF7v6+52dTlVAvxIEOl8FobkANESynNBoiuKrl//qbvb2SUk1Nf+WRDpWdlBtDJepFUYCt3dXo+WINIevEhrnA3DLL9IZZJe7e52e6TK6mgQL1LRZTCajTzgxdpgd7ffo1RpMLzCS6TWlSCeNDwHK7rMvcyK9vH5jc6rx46EQP/nul49wNySwvvCovcXQumdGheFL3Ker6n5GfcyS9uzx67WIFrb8jUr5PQAC+FxrY5/eb1E59XjId50zc4iUBVfamFhGbkMyJTRqa7LJyJpeKnHKbpGL0AA6v3lLYCEfpbP3huXPFiWXPHIzBOseEV76v5eUyHV9jIHEjHnPacAsdd4kXxbVq/341428SJd4k4gTd7R5C2tQlc29zIJAL7Hi+S6J3qICQg1VkP1j7muLmxEeV1tFC+SDF6kJYJEr/ASechL9JEg0pu8SE+iZ/AieQsb7rFAMHQZaTjXVVV0587PBYnMFURisKfROg8GIkjkPa4rqqyODOJFWudIo3UeDYTu5rqSigB+KEjkI+yVONponRkQzRcFHgWEF0k115WSsiDRdZ1ttM4MSN+1Oz0MCK3juooEia6So9E6Tw5ZIv2G6woSJBorV6N1ngzEBKWUN+oTMCJwnqhyUfylnBNIOk8H0mi8RI+UGMmfOE8TL5J0ORuqMwMSlrnBY4GYoJB7ZcbaeM6T1kTh4M5ZQFTHz3cKyI6S4zAxdRjE+flaLeMP8OoJKdH9IHfrJsevWSTPeZGO5jxBgkRj5P6r05mHrLmLHAay5egBiPPr3ea8SjMYby/IPyN0BkoD3gtPAPKBU4HMcSyHbC8ugPgAP3Zs1MQZoC6osphbYeX9ogsQNXwMO27VupzOhS+R3OXv1LzqbiDHPA3IHuEkvN4nkB0XOT4NVCcuWoXBzrcxH3QBpmPzjuzr9LXzEj3qcgjY3WPFQomuFCT62Hxyx91A8s8IkKhWmTxj5HhQnai2DePzfaALDGDHvv1mWpvXdKj6LMxPnw3DIsMg1scL3ogKg4UL0qHg6gVLKEZ9gstgYJxki8lk9gpBBiAHz1dCUngoe79/UopFh6DFeTYdAG1wEDv2n2mToMxwy+b1bDqcD8l91bApaznor1fD02/q2L+fr1kOSaEq2HHyWCsvIcedDgJXi7OFzTamON3tIUe/Og9v9I8ywRg8FNTHqmSBcbD6DINx4WwpvGiot7DzlcUwLCIMDl+s+g6ISL6tMOj/5tQ1tbxE9zrTK4ROADl+7SKMiNWZYMQPBPWRs7Zh5B1sAaO95UQYptAzrMFosvUrl8KC+e/AtsIjkDZyOAwM9IM4X5+GIao+ldper3V+jIKT9/YulbG2QMBRr9HZAaSo5jKMSRxogqGNAfXB0x2CMXNq+zDQMGdgeGoLyI0rVRDr6wOjY6Lh5OHd8OCuHh7eI1B69EtIjQx/OCgoIIOTs0bVmVK6M4EUk69hQkoy+390ZBRo9gmdgoE5aPaMNBiiUUFiSDDMmj4ZYry94Mmj220Cef5MhA/TZ4Gx7muL9+5KNyFZE/JEVk9pzxNs6bETPWTUwDiYlJrCXmvDI0GTX9pGztgP2qDAdmEMjQiDL9auAfHONbhDvmJJG4Hob7TtIe1Z8cFdkKQKPt1pILyo7+9KzxDsANJk0epQUO+yXFDXZJrNh0AXHMyOfWvKRJthau7M6bAlN9PiZt68WgVPnxhgc/ZK2JC5FHasy7IbCIawOF/vzpftG8cZ9i2VcSEQbZ8QCN1W4DCMz/J3wdQRKSwJx/v3BslgGXLQtuauajeP2DL8vV0bcyDGx/vFEFVwhbZnzwEOA3HFBhmHgQQEslDkKIx/L1kMw6PCWRLGBPzsqdjiRu5c/zFsWLkEPslYDGuXf+AQDKFwP2xflwX36m+x/HJk92ZIVoc8GhTov9BBIPatFnEGELWVpaRav94Qum53mzC07XgGwsCEa+1Gnio+DJWlRzqVN9C25FiGQASTHKp6OMDrNfuXEzllL5+dQFStE/SWQxD66XbbMLYebe5NvTl5gtWcgWEKPcP8Rn3z+A7kZX0EG1dnQO6y91nPqbNAbFnhvu0wJKRPpf1AJELluMEltTcgI/NDGBU7AOL8fCA1uh/8J+MDKKm9bjcQVTumPlQJ0eGR7PfnvTPb6vkHBvqzMNUiT+Rkwm39V06DYG7i7WsQ19uBJM9L5LQcMKakDoMF0ybB5eoKePSgFi6d42He5HEwcWgSnKSWUBwFEr4ki9Wv0IswrOE5Pt60oUNAMGe4Agba/bu3HOt14foqe27+4Uvn4O20STAwKAAGa0LYIGv+u/9iMBqeSRYXlj5pHCxZvkQ2IJovSyFi9kL2Oiwjh50DJ6h2C8Utzo/lDRxFuwpAa8Nw6dC4BNex2gMjOUwD2z5dDQZ6BQz0MuRlr2Qh6uql01Yv7GJVGYzQ9Zc1ZPXN2sw29eBrnJjC8wztFwHHv/5f8/k37tsFY2J1NpO6Mw0/c3hk34c6r9fi7AYCAN/vaNcXPWPrJ6ssLuDhfWrz4rAkgXPaSaEq5lHvN+4d7CgQzfZjEL5gmcXPI95ZbBqfHDsH0TEJ7FwzJo7FKmzz9X6wdDGkRIaxUTQO3JwNAj8DPQNhvB4UsIxzVOUi0XYECIYp9Ax7LrLhuRF2b8xlZQr0qPTJ4xiUjgBBGFqNBnRePSFs9ect3z9RDZFps9hMoXpPCWj79GHnW7oyo8U1o6dMG4XVWf8OzbvbsjEx0c1twtfWjsEknhQSfNohz2gtXqKZtkBgDWj62NEQ29sbyo7ls5vs6F+RgV5hIQ7PNTDAj9106zAKTDCaRuzBQaDZXWw7jOV+ATovL9B594K8Q3tl6Zp3zMj90rq6X3BOWUAt0nxrMLA8jTWem9fOQVVFodXBkD327KnIwGzOXgHxGjVo9pa07NbuLQNtSAgDkTZmJEwbb1qg0D9+EKgKW07XYik+bFl284gfj8PpXcx3LoNipCNkB9IEpXVta/aMqaw6an5Dd27Ili3u5uVkQtyY8ZaLEnr1gDe0/ViXGpP10Khw9rOIGXMtu8KLPgTNpn1sdUm/oanNpfvS2zXdY/tCYwX4DH4YJmMsVTsrERroFYgNCrAKZGxSYnOjd5YWQoyvtymftFrpiHkkcvpsUB88xQaNWKrH33933tzus30Be19lRhoW7+/bYG8itw/IZYgLCmwXCNqKnNWmnBIYYFmOP3yGJXn0Elbn8jWtYszOW+98IBK5x7lKiX0Cj2zOXvHcWUDycBwzalyHgKDh5BObI9HFWCxywNF7+HsZFoNGXMPlXCjkvsuA6Lz//veEgN53EYqcnmLAQWXWckhQq0Czo7DDQIpvXYXhA7SmBXKTZ1rkk7Ala6Bv7jb2OnLCNHZcirYfFN284kwolzhXaoD3q39IDAk8ENvb+4m1vvnYWC0zfD1v8tg2++q6pj67rw+8HuhnAaM9IGhfniptXliNntD69yNnprOeGg4a+8fEWx00yhyydnHuUuOWZ+eW3ze2DQRt9XrT81B0/n4WexQRROSUmayLrNlzsnnQuCxzuXOAiHSUO4HkegIQQaIw6y1TSIqO1oG64FzLgeWOQohIX9xc+8IBI65+33LsgLxARFpfVH/9V+4EMspTgBTrrzUvnmMLrluP3j/e3LwiHivEeNzoxAS5w9Uct8EwAan5vRxruBIaa0sYUiwS80dr2XtTRg5v9zx7K/nmLQkRC5aCquiC9VLM3pLGXpevjEBIhUc84VQQyYnONubNyRPaLeh1NObnbN3IKsodKRJOnzBWHs8QaU1p3c3fcZ4gOcJWwZVqBiUhyLRVwNwSNSpYsCDdrtIHblcbPiDaJhgsZuID0Y5e/q8snuExMMwedizrnkOhKxg+ulwiczzymfK8SMZ1vxtOinFMgY+PYk8xksgDHPRh8RA3fLq1N9XBmUbe7TdRksdw7yA+spbrysLNj1hY6wYwvuWl2mSuO4iXaoe6eiuD8N2NfMFLZEPjdmWHzyEY6VSuO4kX6Uw3AZmGn19urI1zyFNFWi+IdAjXHYVQXOUpPHqGSKabf75w+/ZvBZHkNH4lRTsg0KPIZ6ck/R+57iwMXzg34FQYErkniHSwrWvA8YFgpFN4kexnX4tk6ik9xoEc/qxcorOw2sC9LMLv5cBHGznHM2hJeX3tX9zdxi4n9tQ5Uf8P7M/LAkMkN8okkuKxz67qKsIRfXkdHclLpNDu75LCb1+TyHHsjuJ53N2WbqdKg+EVXL/UmHixOKnHwdh3vR1yg5dIkSDR1byRpFbc0//a3desSJEiRYoUKVKkSJEiRYoUKVKkSJEiRYoUcRb6P7ptzhE59m/FAAAAAElFTkSuQmCC;" vertex="1" parent="1">
          <mxGeometry x="-613" y="366" width="49" height="49" as="geometry" />
        </mxCell>
        <mxCell id="FoVjViIGeTf74Zc5e6bM-44" value="&lt;b&gt;Kaggle&lt;/b&gt;" style="text;html=1;align=center;verticalAlign=middle;whiteSpace=wrap;rounded=0;" vertex="1" parent="1">
          <mxGeometry x="-618.5" y="403.5" width="60" height="30" as="geometry" />
        </mxCell>
      </root>
    </mxGraphModel>
  </diagram>
</mxfile>
